<mxfile host="app.diagrams.net" modified="2024-06-12T01:42:59.426Z" agent="Mozilla/5.0 (Windows NT 10.0; Win64; x64) AppleWebKit/537.36 (KHTML, like Gecko) Chrome/125.0.0.0 Safari/537.36 Edg/125.0.0.0" etag="W7XyVs5783VpL6uOyWp3" version="24.5.3" type="github">
  <diagram name="第 1 页" id="m0dKTluwyQyowkxVwOI9">
    <mxGraphModel dx="987" dy="654" grid="0" gridSize="10" guides="1" tooltips="1" connect="1" arrows="1" fold="1" page="1" pageScale="1" pageWidth="827" pageHeight="1169" math="0" shadow="0">
      <root>
        <mxCell id="0" />
        <mxCell id="1" parent="0" />
        <mxCell id="2sjOimZrEYNve6HvXoI_-4" style="edgeStyle=orthogonalEdgeStyle;rounded=1;orthogonalLoop=1;jettySize=auto;html=1;exitX=0.5;exitY=1;exitDx=0;exitDy=0;curved=0;" edge="1" parent="1" source="2sjOimZrEYNve6HvXoI_-1" target="2sjOimZrEYNve6HvXoI_-3">
          <mxGeometry relative="1" as="geometry" />
        </mxCell>
        <mxCell id="2sjOimZrEYNve6HvXoI_-6" style="edgeStyle=orthogonalEdgeStyle;rounded=0;orthogonalLoop=1;jettySize=auto;html=1;entryX=0.5;entryY=0;entryDx=0;entryDy=0;" edge="1" parent="1" source="2sjOimZrEYNve6HvXoI_-1" target="2sjOimZrEYNve6HvXoI_-2">
          <mxGeometry relative="1" as="geometry" />
        </mxCell>
        <mxCell id="2sjOimZrEYNve6HvXoI_-15" style="edgeStyle=orthogonalEdgeStyle;rounded=1;orthogonalLoop=1;jettySize=auto;html=1;entryX=0;entryY=0.5;entryDx=0;entryDy=0;curved=0;" edge="1" parent="1" source="2sjOimZrEYNve6HvXoI_-1" target="2sjOimZrEYNve6HvXoI_-12">
          <mxGeometry relative="1" as="geometry">
            <Array as="points">
              <mxPoint x="295" y="173" />
              <mxPoint x="195" y="173" />
              <mxPoint x="195" y="441" />
            </Array>
          </mxGeometry>
        </mxCell>
        <mxCell id="2sjOimZrEYNve6HvXoI_-1" value="VINSON.T&lt;br&gt;Atlas组(7)&lt;br&gt;M3" style="shape=ext;double=1;rounded=1;whiteSpace=wrap;html=1;fillColor=#dae8fc;strokeColor=#6c8ebf;" vertex="1" parent="1">
          <mxGeometry x="215" y="59" width="160" height="80" as="geometry" />
        </mxCell>
        <mxCell id="2sjOimZrEYNve6HvXoI_-2" value="SPARK.M&lt;br&gt;P2" style="shape=ext;double=1;rounded=1;whiteSpace=wrap;html=1;fillColor=#dae8fc;strokeColor=#6c8ebf;" vertex="1" parent="1">
          <mxGeometry x="215" y="203" width="160" height="80" as="geometry" />
        </mxCell>
        <mxCell id="2sjOimZrEYNve6HvXoI_-9" style="edgeStyle=orthogonalEdgeStyle;rounded=1;orthogonalLoop=1;jettySize=auto;html=1;entryX=1;entryY=0.5;entryDx=0;entryDy=0;exitX=1;exitY=0.5;exitDx=0;exitDy=0;curved=0;" edge="1" parent="1" source="2sjOimZrEYNve6HvXoI_-3" target="2sjOimZrEYNve6HvXoI_-7">
          <mxGeometry relative="1" as="geometry" />
        </mxCell>
        <mxCell id="2sjOimZrEYNve6HvXoI_-10" style="edgeStyle=orthogonalEdgeStyle;rounded=1;orthogonalLoop=1;jettySize=auto;html=1;entryX=1;entryY=0.5;entryDx=0;entryDy=0;curved=0;" edge="1" parent="1" source="2sjOimZrEYNve6HvXoI_-3" target="2sjOimZrEYNve6HvXoI_-8">
          <mxGeometry relative="1" as="geometry">
            <Array as="points">
              <mxPoint x="628" y="245" />
              <mxPoint x="628" y="439" />
            </Array>
          </mxGeometry>
        </mxCell>
        <mxCell id="2sjOimZrEYNve6HvXoI_-3" value="FRANK.L&lt;br&gt;ODYSSEY组(3)&lt;br&gt;P2" style="shape=ext;double=1;rounded=1;whiteSpace=wrap;html=1;fillColor=#dae8fc;strokeColor=#6c8ebf;" vertex="1" parent="1">
          <mxGeometry x="445" y="205" width="160" height="80" as="geometry" />
        </mxCell>
        <mxCell id="2sjOimZrEYNve6HvXoI_-7" value="BLAKE.Y&lt;br&gt;P1" style="shape=ext;double=1;rounded=1;whiteSpace=wrap;html=1;fillColor=#dae8fc;strokeColor=#6c8ebf;" vertex="1" parent="1">
          <mxGeometry x="448" y="302" width="160" height="80" as="geometry" />
        </mxCell>
        <mxCell id="2sjOimZrEYNve6HvXoI_-8" value="JEFFREY.C&lt;br&gt;P2" style="shape=ext;double=1;rounded=1;whiteSpace=wrap;html=1;fillColor=#dae8fc;strokeColor=#6c8ebf;" vertex="1" parent="1">
          <mxGeometry x="448" y="399" width="160" height="80" as="geometry" />
        </mxCell>
        <mxCell id="2sjOimZrEYNve6HvXoI_-11" value="FELIX.W&lt;br&gt;P2" style="shape=ext;double=1;rounded=1;whiteSpace=wrap;html=1;fillColor=#dae8fc;strokeColor=#6c8ebf;" vertex="1" parent="1">
          <mxGeometry x="215" y="302" width="160" height="80" as="geometry" />
        </mxCell>
        <mxCell id="2sjOimZrEYNve6HvXoI_-12" value="MORTAL.H&lt;br&gt;P1" style="shape=ext;double=1;rounded=1;whiteSpace=wrap;html=1;fillColor=#dae8fc;strokeColor=#6c8ebf;" vertex="1" parent="1">
          <mxGeometry x="215" y="401" width="160" height="80" as="geometry" />
        </mxCell>
        <mxCell id="2sjOimZrEYNve6HvXoI_-13" style="edgeStyle=orthogonalEdgeStyle;rounded=1;orthogonalLoop=1;jettySize=auto;html=1;entryX=0.006;entryY=0.425;entryDx=0;entryDy=0;entryPerimeter=0;exitX=0.5;exitY=1;exitDx=0;exitDy=0;curved=0;" edge="1" parent="1" source="2sjOimZrEYNve6HvXoI_-1" target="2sjOimZrEYNve6HvXoI_-11">
          <mxGeometry relative="1" as="geometry">
            <Array as="points">
              <mxPoint x="295" y="172" />
              <mxPoint x="195" y="172" />
              <mxPoint x="195" y="336" />
            </Array>
          </mxGeometry>
        </mxCell>
      </root>
    </mxGraphModel>
  </diagram>
</mxfile>
